<svg width="642" height="596" viewBox="0 0 642 596" fill="none" xmlns="http://www.w3.org/2000/svg">
<g filter="url(#filter0_dii_184_393)">
<path d="M62.1215 419.304C60.8215 419.304 59.4215 419.204 58.1215 418.904C47.8215 416.704 41.3215 406.604 43.5215 396.304C44.3215 392.304 65.3215 298.804 163.821 246.904C173.121 242.004 184.621 245.604 189.521 254.904C194.421 264.204 190.821 275.704 181.521 280.604C147.121 298.704 119.721 324.904 100.121 358.404C85.2215 383.804 80.6215 404.104 80.6215 404.304C78.7215 413.204 70.8215 419.304 62.1215 419.304Z" fill="url(#paint0_linear_184_393)"/>
</g>
<g filter="url(#filter1_dii_184_393)">
<path d="M294.494 530.753H259.094C248.594 530.753 240.094 522.253 240.094 511.753C240.094 501.253 248.594 492.753 259.094 492.753H268.694C256.194 446.453 238.394 349.153 290.794 294.553C298.094 286.953 310.094 286.753 317.694 294.053C325.294 301.353 325.494 313.353 318.194 320.953C291.694 348.453 291.094 395.853 295.194 430.753C299.994 471.153 312.194 504.853 312.294 505.153C314.394 510.953 313.594 517.453 309.994 522.553C306.494 527.753 300.694 530.753 294.494 530.753Z" fill="url(#paint1_linear_184_393)"/>
</g>
<g filter="url(#filter2_dii_184_393)">
<path d="M477.745 470.064C472.745 470.064 467.845 468.064 464.145 464.364L320.545 318.064C313.145 310.564 313.345 298.564 320.745 291.164C328.245 283.764 340.245 283.964 347.645 291.364L481.245 427.464L499.945 417.464C509.145 412.464 520.745 415.964 525.645 425.164C530.645 434.364 527.145 445.964 517.945 450.864L486.745 467.664C483.845 469.364 480.745 470.064 477.745 470.064Z" fill="url(#paint2_linear_184_393)"/>
</g>
<g filter="url(#filter3_dii_184_393)">
<path d="M460.085 258.653C453.285 258.653 446.685 254.953 443.285 248.453C438.385 239.153 441.985 227.653 451.285 222.753C485.785 204.553 514.385 176.653 536.285 139.953C552.885 111.953 559.185 89.0527 559.285 88.8527C561.985 78.7527 572.385 72.6527 582.485 75.3527C592.585 78.0527 598.685 88.3527 595.985 98.5527C594.885 102.853 566.985 204.853 468.985 256.453C466.085 257.953 463.085 258.653 460.085 258.653Z" fill="url(#paint3_linear_184_393)"/>
</g>
<g filter="url(#filter4_dii_184_393)">
<path d="M196.199 339.521L453.099 321.521C473.099 320.121 488.199 302.721 486.799 282.721L472.599 79.6212C470.299 47.1212 431.899 31.1212 407.199 52.3212L319.299 128.121C314.299 132.421 307.099 132.921 301.599 129.321L204.199 66.6212C176.799 48.9212 140.899 70.1212 143.199 102.721L157.399 305.821C158.799 325.821 176.099 340.921 196.199 339.521Z" fill="url(#paint4_linear_184_393)"/>
</g>
<g filter="url(#filter5_dii_184_393)">
<path d="M437.365 296.485L203.165 312.685C187.765 313.785 174.365 302.085 173.265 286.685L166.165 182.985C165.065 167.585 176.765 154.185 192.165 153.085L426.365 136.785C441.765 135.685 455.165 147.385 456.265 162.785L463.465 266.485C464.465 281.985 452.765 295.385 437.365 296.485Z" fill="url(#paint5_linear_184_393)"/>
</g>
<g filter="url(#filter6_dii_184_393)">
<path d="M299.732 210.413C296.832 184.713 274.931 165.713 249.631 165.713C247.731 165.713 245.831 165.813 243.831 166.013C216.131 169.213 196.231 194.213 199.431 221.813C202.331 247.513 224.231 266.513 249.531 266.513C251.431 266.513 253.331 266.413 255.331 266.213C282.931 263.113 302.832 238.113 299.732 210.413ZM274.931 236.313C269.531 243.113 261.832 247.413 253.232 248.313C252.032 248.413 250.731 248.513 249.531 248.513C233.031 248.513 219.231 236.113 217.331 219.713C215.331 201.913 228.131 185.813 245.931 183.813C247.131 183.713 248.431 183.613 249.631 183.613C266.131 183.613 279.931 196.013 281.831 212.413C282.831 221.013 280.331 229.513 274.931 236.313Z" fill="url(#paint6_linear_184_393)"/>
</g>
<g filter="url(#filter7_dii_184_393)">
<path d="M345.441 232.33C340.141 232.33 334.541 230.63 329.041 225.83C322.041 219.73 319.441 210.23 322.141 200.43C326.741 183.83 344.141 171.33 368.741 167.03C381.941 164.73 393.841 165.43 404.141 169.23C413.241 172.53 420.841 178.33 425.541 185.43C431.541 194.53 432.241 204.93 427.241 212.63C416.141 229.63 398.141 225.33 387.441 222.83C383.541 221.93 379.441 220.93 377.241 221.13C374.141 221.53 370.241 223.53 366.141 225.73C360.641 228.43 353.441 232.33 345.441 232.33ZM340.841 212.13C344.841 215.63 347.941 214.83 357.741 209.63C362.941 206.93 368.741 203.83 375.241 203.03C380.641 202.43 386.241 203.73 391.641 205.03C404.141 208.03 408.541 208.03 412.141 202.53C412.941 201.33 412.641 198.33 410.441 195.13C405.541 187.63 392.741 180.93 371.741 184.63C351.041 188.23 341.341 197.93 339.341 205.13C339.041 206.93 338.541 210.13 340.841 212.13Z" fill="url(#paint7_linear_184_393)"/>
</g>
<g filter="url(#filter8_dii_184_393)">
<path d="M304.28 275.925C315.38 281.625 330.68 279.325 339.28 270.225C341.88 267.425 343.88 264.025 344.88 260.325C345.48 258.025 344.08 255.325 341.78 254.825C339.38 254.325 336.98 255.525 336.28 257.925C336.08 258.525 335.88 259.125 335.68 259.825C335.48 260.325 335.78 259.425 335.88 259.425L335.68 259.825C335.48 260.125 335.38 260.425 335.18 260.725C334.88 261.325 334.58 261.825 334.18 262.325C334.08 262.425 333.98 262.525 333.98 262.725C333.88 263.025 333.78 263.025 333.98 262.725C334.18 262.425 334.08 262.425 333.98 262.725C333.88 262.825 333.78 263.025 333.58 263.125C333.38 263.325 331.08 265.925 330.88 265.725C330.88 265.725 331.58 265.225 331.18 265.425C331.08 265.525 330.98 265.625 330.78 265.725C330.48 265.925 330.18 266.125 329.98 266.325C329.48 266.625 328.88 267.025 328.38 267.325C327.78 267.625 327.28 267.925 326.68 268.225C326.58 268.225 326.28 268.425 326.28 268.425C326.28 268.425 327.18 268.125 326.68 268.225C326.38 268.325 326.08 268.425 325.68 268.625C324.48 269.025 323.18 269.425 321.98 269.625C321.68 269.725 321.28 269.725 320.98 269.825C320.78 269.825 319.88 270.125 320.58 269.925C321.18 269.725 320.38 269.925 320.18 269.925C319.78 269.925 319.38 270.025 318.98 270.025C317.68 270.125 316.48 270.025 315.18 269.925C314.88 269.925 314.48 269.725 314.18 269.825C314.18 269.825 315.18 270.025 314.68 269.925C314.48 269.925 314.28 269.825 314.08 269.825C313.38 269.725 312.68 269.525 311.98 269.325C311.38 269.125 310.68 268.925 310.08 268.725C309.98 268.725 309.68 268.525 309.58 268.525C309.68 268.525 310.48 268.925 309.88 268.625C309.58 268.425 309.18 268.325 308.88 268.125C306.78 267.025 303.88 267.525 302.68 269.725C301.58 271.825 301.98 274.725 304.28 275.925Z" fill="url(#paint8_linear_184_393)"/>
</g>
<defs>
<filter id="filter0_dii_184_393" x="-0.000839233" y="223.166" width="234.808" height="260.78" filterUnits="userSpaceOnUse" color-interpolation-filters="sRGB">
<feFlood flood-opacity="0" result="BackgroundImageFix"/>
<feColorMatrix in="SourceAlpha" type="matrix" values="0 0 0 0 0 0 0 0 0 0 0 0 0 0 0 0 0 0 127 0" result="hardAlpha"/>
<feOffset dy="21.5473"/>
<feGaussianBlur stdDeviation="21.5473"/>
<feColorMatrix type="matrix" values="0 0 0 0 0.0996078 0 0 0 0 0.0643137 0 0 0 0 0.2 0 0 0 0.4115 0"/>
<feBlend mode="normal" in2="BackgroundImageFix" result="effect1_dropShadow_184_393"/>
<feBlend mode="normal" in="SourceGraphic" in2="effect1_dropShadow_184_393" result="shape"/>
<feColorMatrix in="SourceAlpha" type="matrix" values="0 0 0 0 0 0 0 0 0 0 0 0 0 0 0 0 0 0 127 0" result="hardAlpha"/>
<feOffset dy="9.04986"/>
<feGaussianBlur stdDeviation="4.52493"/>
<feComposite in2="hardAlpha" operator="arithmetic" k2="-1" k3="1"/>
<feColorMatrix type="matrix" values="0 0 0 0 0.626533 0 0 0 0 0.404533 0 0 0 0 1 0 0 0 1 0"/>
<feBlend mode="normal" in2="shape" result="effect2_innerShadow_184_393"/>
<feColorMatrix in="SourceAlpha" type="matrix" values="0 0 0 0 0 0 0 0 0 0 0 0 0 0 0 0 0 0 127 0" result="hardAlpha"/>
<feOffset dy="-9.04986"/>
<feGaussianBlur stdDeviation="4.52493"/>
<feComposite in2="hardAlpha" operator="arithmetic" k2="-1" k3="1"/>
<feColorMatrix type="matrix" values="0 0 0 0 0.337422 0 0 0 0 0.217863 0 0 0 0 0.6775 0 0 0 1 0"/>
<feBlend mode="normal" in2="effect2_innerShadow_184_393" result="effect3_innerShadow_184_393"/>
</filter>
<filter id="filter1_dii_184_393" x="196.696" y="267.014" width="170.236" height="328.836" filterUnits="userSpaceOnUse" color-interpolation-filters="sRGB">
<feFlood flood-opacity="0" result="BackgroundImageFix"/>
<feColorMatrix in="SourceAlpha" type="matrix" values="0 0 0 0 0 0 0 0 0 0 0 0 0 0 0 0 0 0 127 0" result="hardAlpha"/>
<feOffset dy="21.6987"/>
<feGaussianBlur stdDeviation="21.6987"/>
<feColorMatrix type="matrix" values="0 0 0 0 0.0996078 0 0 0 0 0.0643137 0 0 0 0 0.2 0 0 0 0.4535 0"/>
<feBlend mode="normal" in2="BackgroundImageFix" result="effect1_dropShadow_184_393"/>
<feBlend mode="normal" in="SourceGraphic" in2="effect1_dropShadow_184_393" result="shape"/>
<feColorMatrix in="SourceAlpha" type="matrix" values="0 0 0 0 0 0 0 0 0 0 0 0 0 0 0 0 0 0 127 0" result="hardAlpha"/>
<feOffset dy="9.69211"/>
<feGaussianBlur stdDeviation="4.84605"/>
<feComposite in2="hardAlpha" operator="arithmetic" k2="-1" k3="1"/>
<feColorMatrix type="matrix" values="0 0 0 0 0.638486 0 0 0 0 0.412251 0 0 0 0 1 0 0 0 1 0"/>
<feBlend mode="normal" in2="shape" result="effect2_innerShadow_184_393"/>
<feColorMatrix in="SourceAlpha" type="matrix" values="0 0 0 0 0 0 0 0 0 0 0 0 0 0 0 0 0 0 127 0" result="hardAlpha"/>
<feOffset dy="-9.69211"/>
<feGaussianBlur stdDeviation="4.84605"/>
<feComposite in2="hardAlpha" operator="arithmetic" k2="-1" k3="1"/>
<feColorMatrix type="matrix" values="0 0 0 0 0.32248 0 0 0 0 0.208216 0 0 0 0 0.6475 0 0 0 1 0"/>
<feBlend mode="normal" in2="effect2_innerShadow_184_393" result="effect3_innerShadow_184_393"/>
</filter>
<filter id="filter2_dii_184_393" x="262.136" y="259.234" width="318.75" height="290.267" filterUnits="userSpaceOnUse" color-interpolation-filters="sRGB">
<feFlood flood-opacity="0" result="BackgroundImageFix"/>
<feColorMatrix in="SourceAlpha" type="matrix" values="0 0 0 0 0 0 0 0 0 0 0 0 0 0 0 0 0 0 127 0" result="hardAlpha"/>
<feOffset dy="26.479"/>
<feGaussianBlur stdDeviation="26.479"/>
<feColorMatrix type="matrix" values="0 0 0 0 0.0996078 0 0 0 0 0.0643137 0 0 0 0 0.2 0 0 0 0.373 0"/>
<feBlend mode="normal" in2="BackgroundImageFix" result="effect1_dropShadow_184_393"/>
<feBlend mode="normal" in="SourceGraphic" in2="effect1_dropShadow_184_393" result="shape"/>
<feColorMatrix in="SourceAlpha" type="matrix" values="0 0 0 0 0 0 0 0 0 0 0 0 0 0 0 0 0 0 127 0" result="hardAlpha"/>
<feOffset dy="10.4739"/>
<feGaussianBlur stdDeviation="5.23696"/>
<feComposite in2="hardAlpha" operator="arithmetic" k2="-1" k3="1"/>
<feColorMatrix type="matrix" values="0 0 0 0 0.615576 0 0 0 0 0.397459 0 0 0 0 1 0 0 0 1 0"/>
<feBlend mode="normal" in2="shape" result="effect2_innerShadow_184_393"/>
<feColorMatrix in="SourceAlpha" type="matrix" values="0 0 0 0 0 0 0 0 0 0 0 0 0 0 0 0 0 0 127 0" result="hardAlpha"/>
<feOffset dy="-10.4739"/>
<feGaussianBlur stdDeviation="5.23696"/>
<feComposite in2="hardAlpha" operator="arithmetic" k2="-1" k3="1"/>
<feColorMatrix type="matrix" values="0 0 0 0 0.351118 0 0 0 0 0.226706 0 0 0 0 0.705 0 0 0 1 0"/>
<feBlend mode="normal" in2="effect2_innerShadow_184_393" result="effect3_innerShadow_184_393"/>
</filter>
<filter id="filter3_dii_184_393" x="395.831" y="52.0815" width="246.057" height="274.465" filterUnits="userSpaceOnUse" color-interpolation-filters="sRGB">
<feFlood flood-opacity="0" result="BackgroundImageFix"/>
<feColorMatrix in="SourceAlpha" type="matrix" values="0 0 0 0 0 0 0 0 0 0 0 0 0 0 0 0 0 0 127 0" result="hardAlpha"/>
<feOffset dy="22.6314"/>
<feGaussianBlur stdDeviation="22.6314"/>
<feColorMatrix type="matrix" values="0 0 0 0 0.0996078 0 0 0 0 0.0643137 0 0 0 0 0.2 0 0 0 0.4955 0"/>
<feBlend mode="normal" in2="BackgroundImageFix" result="effect1_dropShadow_184_393"/>
<feBlend mode="normal" in="SourceGraphic" in2="effect1_dropShadow_184_393" result="shape"/>
<feColorMatrix in="SourceAlpha" type="matrix" values="0 0 0 0 0 0 0 0 0 0 0 0 0 0 0 0 0 0 127 0" result="hardAlpha"/>
<feOffset dy="10.7122"/>
<feGaussianBlur stdDeviation="5.35609"/>
<feComposite in2="hardAlpha" operator="arithmetic" k2="-1" k3="1"/>
<feColorMatrix type="matrix" values="0 0 0 0 0.650439 0 0 0 0 0.419969 0 0 0 0 1 0 0 0 1 0"/>
<feBlend mode="normal" in2="shape" result="effect2_innerShadow_184_393"/>
<feColorMatrix in="SourceAlpha" type="matrix" values="0 0 0 0 0 0 0 0 0 0 0 0 0 0 0 0 0 0 127 0" result="hardAlpha"/>
<feOffset dy="-10.7122"/>
<feGaussianBlur stdDeviation="5.35609"/>
<feComposite in2="hardAlpha" operator="arithmetic" k2="-1" k3="1"/>
<feColorMatrix type="matrix" values="0 0 0 0 0.307539 0 0 0 0 0.198569 0 0 0 0 0.6175 0 0 0 1 0"/>
<feBlend mode="normal" in2="effect2_innerShadow_184_393" result="effect3_innerShadow_184_393"/>
</filter>
<filter id="filter4_dii_184_393" x="57.668" y="-7.62939e-06" width="514.647" height="467.75" filterUnits="userSpaceOnUse" color-interpolation-filters="sRGB">
<feFlood flood-opacity="0" result="BackgroundImageFix"/>
<feColorMatrix in="SourceAlpha" type="matrix" values="0 0 0 0 0 0 0 0 0 0 0 0 0 0 0 0 0 0 127 0" result="hardAlpha"/>
<feOffset dy="42.7129"/>
<feGaussianBlur stdDeviation="42.7129"/>
<feColorMatrix type="matrix" values="0 0 0 0 0.0996078 0 0 0 0 0.0643137 0 0 0 0 0.2 0 0 0 0.604 0"/>
<feBlend mode="normal" in2="BackgroundImageFix" result="effect1_dropShadow_184_393"/>
<feBlend mode="normal" in="SourceGraphic" in2="effect1_dropShadow_184_393" result="shape"/>
<feColorMatrix in="SourceAlpha" type="matrix" values="0 0 0 0 0 0 0 0 0 0 0 0 0 0 0 0 0 0 127 0" result="hardAlpha"/>
<feOffset dy="23.1599"/>
<feGaussianBlur stdDeviation="11.5799"/>
<feComposite in2="hardAlpha" operator="arithmetic" k2="-1" k3="1"/>
<feColorMatrix type="matrix" values="0 0 0 0 0.681318 0 0 0 0 0.439906 0 0 0 0 1 0 0 0 1 0"/>
<feBlend mode="normal" in2="shape" result="effect2_innerShadow_184_393"/>
<feColorMatrix in="SourceAlpha" type="matrix" values="0 0 0 0 0 0 0 0 0 0 0 0 0 0 0 0 0 0 127 0" result="hardAlpha"/>
<feOffset dy="-23.1599"/>
<feGaussianBlur stdDeviation="11.5799"/>
<feComposite in2="hardAlpha" operator="arithmetic" k2="-1" k3="1"/>
<feColorMatrix type="matrix" values="0 0 0 0 0.268941 0 0 0 0 0.173647 0 0 0 0 0.54 0 0 0 1 0"/>
<feBlend mode="normal" in2="effect2_innerShadow_184_393" result="effect3_innerShadow_184_393"/>
</filter>
<filter id="filter5_dii_184_393" x="102.964" y="105.148" width="423.692" height="302.303" filterUnits="userSpaceOnUse" color-interpolation-filters="sRGB">
<feFlood flood-opacity="0" result="BackgroundImageFix"/>
<feColorMatrix in="SourceAlpha" type="matrix" values="0 0 0 0 0 0 0 0 0 0 0 0 0 0 0 0 0 0 127 0" result="hardAlpha"/>
<feOffset dy="31.565"/>
<feGaussianBlur stdDeviation="31.565"/>
<feColorMatrix type="matrix" values="0 0 0 0 0 0 0 0 0 0 0 0 0 0 0 0 0 0 0.3485 0"/>
<feBlend mode="normal" in2="BackgroundImageFix" result="effect1_dropShadow_184_393"/>
<feBlend mode="normal" in="SourceGraphic" in2="effect1_dropShadow_184_393" result="shape"/>
<feColorMatrix in="SourceAlpha" type="matrix" values="0 0 0 0 0 0 0 0 0 0 0 0 0 0 0 0 0 0 127 0" result="hardAlpha"/>
<feOffset dy="11.9947"/>
<feGaussianBlur stdDeviation="5.99734"/>
<feComposite in2="hardAlpha" operator="arithmetic" k2="-1" k3="1"/>
<feColorMatrix type="matrix" values="0 0 0 0 0 0 0 0 0 0 0 0 0 0 0 0 0 0 1 0"/>
<feBlend mode="normal" in2="shape" result="effect2_innerShadow_184_393"/>
<feColorMatrix in="SourceAlpha" type="matrix" values="0 0 0 0 0 0 0 0 0 0 0 0 0 0 0 0 0 0 127 0" result="hardAlpha"/>
<feOffset dy="-11.9947"/>
<feGaussianBlur stdDeviation="5.99734"/>
<feComposite in2="hardAlpha" operator="arithmetic" k2="-1" k3="1"/>
<feColorMatrix type="matrix" values="0 0 0 0 0 0 0 0 0 0 0 0 0 0 0 0 0 0 1 0"/>
<feBlend mode="normal" in2="effect2_innerShadow_184_393" result="effect3_innerShadow_184_393"/>
</filter>
<filter id="filter6_dii_184_393" x="172.193" y="152.262" width="154.757" height="154.601" filterUnits="userSpaceOnUse" color-interpolation-filters="sRGB">
<feFlood flood-opacity="0" result="BackgroundImageFix"/>
<feColorMatrix in="SourceAlpha" type="matrix" values="0 0 0 0 0 0 0 0 0 0 0 0 0 0 0 0 0 0 127 0" result="hardAlpha"/>
<feOffset dy="13.4504"/>
<feGaussianBlur stdDeviation="13.4504"/>
<feColorMatrix type="matrix" values="0 0 0 0 0.2 0 0 0 0 0.2 0 0 0 0 0.2 0 0 0 0.25 0"/>
<feBlend mode="normal" in2="BackgroundImageFix" result="effect1_dropShadow_184_393"/>
<feBlend mode="normal" in="SourceGraphic" in2="effect1_dropShadow_184_393" result="shape"/>
<feColorMatrix in="SourceAlpha" type="matrix" values="0 0 0 0 0 0 0 0 0 0 0 0 0 0 0 0 0 0 127 0" result="hardAlpha"/>
<feOffset dy="4.48347"/>
<feGaussianBlur stdDeviation="2.24173"/>
<feComposite in2="hardAlpha" operator="arithmetic" k2="-1" k3="1"/>
<feColorMatrix type="matrix" values="0 0 0 0 1 0 0 0 0 1 0 0 0 0 1 0 0 0 1 0"/>
<feBlend mode="normal" in2="shape" result="effect2_innerShadow_184_393"/>
<feColorMatrix in="SourceAlpha" type="matrix" values="0 0 0 0 0 0 0 0 0 0 0 0 0 0 0 0 0 0 127 0" result="hardAlpha"/>
<feOffset dy="-4.48347"/>
<feGaussianBlur stdDeviation="2.24173"/>
<feComposite in2="hardAlpha" operator="arithmetic" k2="-1" k3="1"/>
<feColorMatrix type="matrix" values="0 0 0 0 0.8 0 0 0 0 0.8 0 0 0 0 0.8 0 0 0 1 0"/>
<feBlend mode="normal" in2="effect2_innerShadow_184_393" result="effect3_innerShadow_184_393"/>
</filter>
<filter id="filter7_dii_184_393" x="297.615" y="153.974" width="156.427" height="113.573" filterUnits="userSpaceOnUse" color-interpolation-filters="sRGB">
<feFlood flood-opacity="0" result="BackgroundImageFix"/>
<feColorMatrix in="SourceAlpha" type="matrix" values="0 0 0 0 0 0 0 0 0 0 0 0 0 0 0 0 0 0 127 0" result="hardAlpha"/>
<feOffset dy="11.7392"/>
<feGaussianBlur stdDeviation="11.7392"/>
<feColorMatrix type="matrix" values="0 0 0 0 0.2 0 0 0 0 0.2 0 0 0 0 0.2 0 0 0 0.25 0"/>
<feBlend mode="normal" in2="BackgroundImageFix" result="effect1_dropShadow_184_393"/>
<feBlend mode="normal" in="SourceGraphic" in2="effect1_dropShadow_184_393" result="shape"/>
<feColorMatrix in="SourceAlpha" type="matrix" values="0 0 0 0 0 0 0 0 0 0 0 0 0 0 0 0 0 0 127 0" result="hardAlpha"/>
<feOffset dy="3.91307"/>
<feGaussianBlur stdDeviation="1.95653"/>
<feComposite in2="hardAlpha" operator="arithmetic" k2="-1" k3="1"/>
<feColorMatrix type="matrix" values="0 0 0 0 1 0 0 0 0 1 0 0 0 0 1 0 0 0 1 0"/>
<feBlend mode="normal" in2="shape" result="effect2_innerShadow_184_393"/>
<feColorMatrix in="SourceAlpha" type="matrix" values="0 0 0 0 0 0 0 0 0 0 0 0 0 0 0 0 0 0 127 0" result="hardAlpha"/>
<feOffset dy="-3.91307"/>
<feGaussianBlur stdDeviation="1.95653"/>
<feComposite in2="hardAlpha" operator="arithmetic" k2="-1" k3="1"/>
<feColorMatrix type="matrix" values="0 0 0 0 0.8 0 0 0 0 0.8 0 0 0 0 0.8 0 0 0 1 0"/>
<feBlend mode="normal" in2="effect2_innerShadow_184_393" result="effect3_innerShadow_184_393"/>
</filter>
<filter id="filter8_dii_184_393" x="293.128" y="250.23" width="60.8564" height="42.2451" filterUnits="userSpaceOnUse" color-interpolation-filters="sRGB">
<feFlood flood-opacity="0" result="BackgroundImageFix"/>
<feColorMatrix in="SourceAlpha" type="matrix" values="0 0 0 0 0 0 0 0 0 0 0 0 0 0 0 0 0 0 127 0" result="hardAlpha"/>
<feOffset dy="4.48267"/>
<feGaussianBlur stdDeviation="4.48267"/>
<feColorMatrix type="matrix" values="0 0 0 0 0.2 0 0 0 0 0.2 0 0 0 0 0.2 0 0 0 0.3555 0"/>
<feBlend mode="normal" in2="BackgroundImageFix" result="effect1_dropShadow_184_393"/>
<feBlend mode="normal" in="SourceGraphic" in2="effect1_dropShadow_184_393" result="shape"/>
<feColorMatrix in="SourceAlpha" type="matrix" values="0 0 0 0 0 0 0 0 0 0 0 0 0 0 0 0 0 0 127 0" result="hardAlpha"/>
<feOffset dy="1.72334"/>
<feGaussianBlur stdDeviation="0.861668"/>
<feComposite in2="hardAlpha" operator="arithmetic" k2="-1" k3="1"/>
<feColorMatrix type="matrix" values="0 0 0 0 1 0 0 0 0 1 0 0 0 0 1 0 0 0 1 0"/>
<feBlend mode="normal" in2="shape" result="effect2_innerShadow_184_393"/>
<feColorMatrix in="SourceAlpha" type="matrix" values="0 0 0 0 0 0 0 0 0 0 0 0 0 0 0 0 0 0 127 0" result="hardAlpha"/>
<feOffset dy="-1.72334"/>
<feGaussianBlur stdDeviation="0.861668"/>
<feComposite in2="hardAlpha" operator="arithmetic" k2="-1" k3="1"/>
<feColorMatrix type="matrix" values="0 0 0 0 0.7175 0 0 0 0 0.7175 0 0 0 0 0.7175 0 0 0 1 0"/>
<feBlend mode="normal" in2="effect2_innerShadow_184_393" result="effect3_innerShadow_184_393"/>
</filter>
<linearGradient id="paint0_linear_184_393" x1="117.403" y1="244.713" x2="117.403" y2="419.304" gradientUnits="userSpaceOnUse">
<stop stop-color="#9862FF"/>
<stop offset="1" stop-color="#5E3DBD"/>
</linearGradient>
<linearGradient id="paint1_linear_184_393" x1="281.814" y1="288.713" x2="281.814" y2="530.753" gradientUnits="userSpaceOnUse">
<stop stop-color="#9A63FF"/>
<stop offset="1" stop-color="#5B3BB7"/>
</linearGradient>
<linearGradient id="paint2_linear_184_393" x1="421.511" y1="285.713" x2="421.511" y2="470.064" gradientUnits="userSpaceOnUse">
<stop stop-color="#9561FF"/>
<stop offset="1" stop-color="#613FC3"/>
</linearGradient>
<linearGradient id="paint3_linear_184_393" x1="518.859" y1="74.7129" x2="518.859" y2="258.653" gradientUnits="userSpaceOnUse">
<stop stop-color="#9C65FF"/>
<stop offset="1" stop-color="#5839B1"/>
</linearGradient>
<linearGradient id="paint4_linear_184_393" x1="314.991" y1="42.7129" x2="314.991" y2="339.611" gradientUnits="userSpaceOnUse">
<stop stop-color="#A269FF"/>
<stop offset="1" stop-color="#5034A1"/>
</linearGradient>
<linearGradient id="paint5_linear_184_393" x1="314.809" y1="136.713" x2="314.809" y2="312.756" gradientUnits="userSpaceOnUse">
<stop/>
<stop offset="1" stop-color="#484848"/>
</linearGradient>
<linearGradient id="paint6_linear_184_393" x1="249.572" y1="165.713" x2="249.572" y2="266.513" gradientUnits="userSpaceOnUse">
<stop stop-color="white"/>
<stop offset="1" stop-color="#D6D6D6"/>
</linearGradient>
<linearGradient id="paint7_linear_184_393" x1="375.829" y1="165.713" x2="375.829" y2="232.33" gradientUnits="userSpaceOnUse">
<stop stop-color="white"/>
<stop offset="1" stop-color="#D6D6D6"/>
</linearGradient>
<linearGradient id="paint8_linear_184_393" x1="323.557" y1="254.713" x2="323.557" y2="279.027" gradientUnits="userSpaceOnUse">
<stop stop-color="white"/>
<stop offset="1" stop-color="#C5C5C5"/>
</linearGradient>
</defs>
</svg>
